<svg width="72" height="10" viewBox="0 0 72 10" fill="none" xmlns="http://www.w3.org/2000/svg">
<g clip-path="url(#clip0)">
<path d="M26.0566 7.26666V4.45332C26.0584 3.36179 26.4874 2.31556 27.2494 1.54435C28.0114 0.773139 29.0443 0.33998 30.1211 0.339981H31.0945C32.1707 0.341738 33.2026 0.775462 33.9642 1.54629C34.7259 2.31712 35.1554 3.36233 35.1589 4.45332V5.44665C35.1554 6.53765 34.7259 7.58286 33.9642 8.35368C33.2026 9.12451 32.1707 9.55823 31.0945 9.55998H28.3257V7.25332L26.0566 7.26666ZM32.8833 4.85332C32.8842 4.56441 32.8289 4.27816 32.7207 4.01091C32.6124 3.74366 32.4532 3.50064 32.2523 3.29573C32.0514 3.09082 31.8126 2.92803 31.5497 2.81667C31.2867 2.7053 31.0046 2.64753 30.7196 2.64665H30.4959C29.922 2.65193 29.3734 2.88674 28.9694 3.3C28.5654 3.71326 28.3387 4.27152 28.3388 4.85332V7.26666H30.7196C31.0046 7.26578 31.2867 7.20801 31.5497 7.09664C31.8126 6.98528 32.0514 6.82249 32.2523 6.61758C32.4532 6.41267 32.6124 6.16965 32.7207 5.9024C32.8289 5.63515 32.8842 5.34889 32.8833 5.05998V4.85332Z" fill="white"/>
<path d="M36.8364 0.346662H40.5983C41.4341 0.338052 42.2486 0.613847 42.9116 1.12993C43.5745 1.646 44.0476 2.37255 44.255 3.19333C44.814 5.32 45.3862 7.44666 45.9452 9.56666H43.4855L42.0321 4.06666C41.9259 3.65738 41.6888 3.29532 41.358 3.03717C41.0272 2.77902 40.6212 2.63935 40.2037 2.64H39.0989V9.56666H36.8232L36.8364 0.346662Z" fill="white"/>
<path d="M45.9717 0.333328H55.087V2.64H45.9717V0.333328ZM49.2996 2.64H51.7527V9.56667H49.2601L49.2996 2.64Z" fill="white"/>
<path d="M9.14149 0.346664H15.9616V9.56667H12.0155C10.648 9.56667 9.33654 9.016 8.36957 8.03581C7.4026 7.05562 6.85938 5.72619 6.85938 4.33999V2.65333H9.14149V0.346664ZM9.14149 2.65333V4.38666C9.14322 5.14641 9.44171 5.87454 9.97169 6.41176C10.5017 6.94898 11.22 7.25157 11.9695 7.25333H13.686V2.65333H9.14149Z" fill="white"/>
<path d="M6.87257 2.65333V4.38666C6.87083 5.14818 6.57157 5.878 6.04036 6.41647C5.50915 6.95494 4.78919 7.25823 4.03795 7.26H2.32143V2.65333H6.87257V0.346664H0.0458984V9.56667H3.99195C5.35945 9.56667 6.67093 9.016 7.6379 8.03581C8.60487 7.05562 9.1481 5.72619 9.1481 4.33999V2.65333H6.87257Z" fill="white"/>
<path d="M69.6935 2.65333H71.9691V4.33999C71.9674 5.7268 71.4227 7.05621 70.4547 8.03621C69.4867 9.01621 68.1745 9.56667 66.8064 9.56667H62.8604V0.346664H69.687L69.6935 2.65333ZM65.1425 2.65333V7.26667H66.859C67.6102 7.26491 68.3302 6.96162 68.8614 6.42314C69.3926 5.88467 69.6918 5.15484 69.6935 4.39333V2.65333H65.1425Z" fill="white"/>
<path d="M61.5709 3.82666H59.2822V9.57333H61.5709V3.82666Z" fill="white"/>
<path d="M61.5709 0.346649H59.2822V2.66665H61.5709V0.346649Z" fill="white"/>
</g>
<defs>
<clipPath id="clip0">
<rect width="71.9233" height="9.24" fill="white" transform="translate(0.0458984 0.333328)"/>
</clipPath>
</defs>
</svg>
