<svg width="94" height="12" viewBox="0 0 94 12" fill="none" xmlns="http://www.w3.org/2000/svg">
<g clip-path="url(#clip0)">
<path d="M33.7803 9.00433V5.35065C33.7825 3.93307 34.3396 2.57433 35.3293 1.57276C36.319 0.571186 37.6603 0.00864225 39.0588 0.0086441H40.3229C41.7207 0.0109257 43.0607 0.574203 44.0499 1.57528C45.039 2.57636 45.5969 3.93377 45.6014 5.35065V6.64068C45.5969 8.05756 45.039 9.41497 44.0499 10.416C43.0607 11.4171 41.7207 11.9804 40.3229 11.9827H36.7271V8.98701L33.7803 9.00433ZM42.6461 5.87012C42.6472 5.49491 42.5755 5.12316 42.4348 4.77608C42.2942 4.429 42.0875 4.11339 41.8266 3.84728C41.5656 3.58117 41.2556 3.36975 40.9141 3.22512C40.5725 3.08048 40.2062 3.00546 39.8361 3.00432H39.5456C38.8002 3.01117 38.0877 3.31613 37.563 3.85283C37.0384 4.38953 36.744 5.11454 36.7441 5.87012V9.00433H39.8361C40.2062 9.00319 40.5725 8.92817 40.9141 8.78353C41.2556 8.6389 41.5656 8.42748 41.8266 8.16137C42.0875 7.89525 42.2942 7.57964 42.4348 7.23256C42.5755 6.88548 42.6472 6.51372 42.6461 6.13852V5.87012Z" fill="#090909"/>
<path d="M47.7798 0.0173286H52.6654C53.7508 0.00614733 54.8087 0.364323 55.6696 1.03455C56.5305 1.70479 57.1449 2.64835 57.4143 3.7143C58.1403 6.47621 58.8834 9.23811 59.6094 11.9914H56.415L54.5274 4.8485C54.3895 4.31696 54.0816 3.84676 53.652 3.5115C53.2224 3.17624 52.6951 2.99484 52.1529 2.99569H50.718V11.9914H47.7627L47.7798 0.0173286Z" fill="#090909"/>
<path d="M59.6436 0H71.4817V2.99568H59.6436V0ZM63.9655 2.99568H67.1513V11.9913H63.9142L63.9655 2.99568Z" fill="#090909"/>
<path d="M11.8124 0.0173111H20.6697V11.9913H15.5449C13.769 11.9913 12.0657 11.2762 10.8099 10.0032C9.55412 8.73024 8.84863 7.00371 8.84863 5.20345V3.01297H11.8124V0.0173111ZM11.8124 3.01297V5.26406C11.8147 6.25075 12.2023 7.19636 12.8906 7.89406C13.5789 8.59175 14.5118 8.98472 15.4852 8.98701H17.7144V3.01297H11.8124Z" fill="#090909"/>
<path d="M8.8658 3.01297V5.26406C8.86355 6.25304 8.4749 7.20086 7.78501 7.90017C7.09513 8.59949 6.16012 8.99337 5.18448 8.99566H2.95523V3.01297H8.8658V0.0173111H0V11.9913H5.12474C6.90072 11.9913 8.60394 11.2762 9.85974 10.0032C11.1155 8.73024 11.821 7.00371 11.821 5.20345V3.01297H8.8658Z" fill="#090909"/>
<path d="M90.4514 3.01297H93.4067V5.20345C93.4045 7.0045 92.6971 8.73101 91.4399 10.0037C90.1828 11.2765 88.4787 11.9913 86.7019 11.9913H81.5771V0.0173111H90.443L90.4514 3.01297ZM84.5409 3.01297V9.00433H86.7702C87.7458 9.00204 88.6808 8.60816 89.3707 7.90884C90.0606 7.20952 90.4491 6.26169 90.4514 5.27272V3.01297H84.5409Z" fill="#090909"/>
<path d="M79.903 4.5368H76.9307V12H79.903V4.5368Z" fill="#090909"/>
<path d="M79.903 0.0173111H76.9307V3.0303H79.903V0.0173111Z" fill="#090909"/>
</g>
<defs>
<clipPath id="clip0">
<rect width="93.4069" height="12" fill="white"/>
</clipPath>
</defs>
</svg>
